<?xml version="1.0" encoding="UTF-8" standalone="no"?>
<!-- Created with Inkscape (http://www.inkscape.org/) -->

<svg
   xmlns:dc="http://purl.org/dc/elements/1.1/"
   xmlns:cc="http://creativecommons.org/ns#"
   xmlns:rdf="http://www.w3.org/1999/02/22-rdf-syntax-ns#"
   xmlns:svg="http://www.w3.org/2000/svg"
   xmlns="http://www.w3.org/2000/svg"
   xmlns:xlink="http://www.w3.org/1999/xlink"
   xmlns:sodipodi="http://sodipodi.sourceforge.net/DTD/sodipodi-0.dtd"
   xmlns:inkscape="http://www.inkscape.org/namespaces/inkscape"
   width="300"
   height="400"
   viewBox="0 0 79.374998 105.83333"
   version="1.1"
   id="svg8"
   inkscape:version="0.92.1 r15371"
   sodipodi:docname="ip camera.svg">
  <defs
     id="defs2">
    <linearGradient
       inkscape:collect="always"
       id="linearGradient1006">
      <stop
         style="stop-color:#ffffff;stop-opacity:1;"
         offset="0"
         id="stop1002" />
      <stop
         style="stop-color:#ffffff;stop-opacity:0;"
         offset="1"
         id="stop1004" />
    </linearGradient>
    <linearGradient
       inkscape:collect="always"
       id="linearGradient964">
      <stop
         style="stop-color:#ffffff;stop-opacity:1;"
         offset="0"
         id="stop960" />
      <stop
         style="stop-color:#ffffff;stop-opacity:0;"
         offset="1"
         id="stop962" />
    </linearGradient>
    <linearGradient
       inkscape:collect="always"
       id="linearGradient954">
      <stop
         style="stop-color:#000000;stop-opacity:1"
         offset="0"
         id="stop950" />
      <stop
         style="stop-color:#4d4d4d;stop-opacity:1"
         offset="1"
         id="stop952" />
    </linearGradient>
    <linearGradient
       inkscape:collect="always"
       id="linearGradient936">
      <stop
         style="stop-color:#1a1a1a;stop-opacity:1"
         offset="0"
         id="stop932" />
      <stop
         id="stop940"
         offset="0.50001848"
         style="stop-color:#4d4d4d;stop-opacity:1" />
      <stop
         style="stop-color:#1a1a1a;stop-opacity:1"
         offset="1"
         id="stop934" />
    </linearGradient>
    <linearGradient
       inkscape:collect="always"
       id="linearGradient926">
      <stop
         style="stop-color:#1a1a1a;stop-opacity:1"
         offset="0"
         id="stop922" />
      <stop
         id="stop930"
         offset="0.53351301"
         style="stop-color:#4d4d4d;stop-opacity:1" />
      <stop
         style="stop-color:#1a1a1a;stop-opacity:1"
         offset="1"
         id="stop924" />
    </linearGradient>
    <linearGradient
       inkscape:collect="always"
       id="linearGradient899">
      <stop
         style="stop-color:#000000;stop-opacity:1;"
         offset="0"
         id="stop895" />
      <stop
         style="stop-color:#000000;stop-opacity:0;"
         offset="1"
         id="stop897" />
    </linearGradient>
    <linearGradient
       inkscape:collect="always"
       id="linearGradient862">
      <stop
         style="stop-color:#ffffff;stop-opacity:1;"
         offset="0"
         id="stop858" />
      <stop
         style="stop-color:#ffffff;stop-opacity:0;"
         offset="1"
         id="stop860" />
    </linearGradient>
    <linearGradient
       inkscape:collect="always"
       xlink:href="#linearGradient862"
       id="linearGradient864"
       x1="-1586.5044"
       y1="249.51654"
       x2="-1551.8795"
       y2="375.52869"
       gradientUnits="userSpaceOnUse" />
    <filter
       inkscape:collect="always"
       style="color-interpolation-filters:sRGB"
       id="filter870"
       x="-0.010567074"
       width="1.0211341"
       y="-0.013882508"
       height="1.027765">
      <feGaussianBlur
         inkscape:collect="always"
         stdDeviation="0.57692395"
         id="feGaussianBlur872" />
    </filter>
    <linearGradient
       inkscape:collect="always"
       xlink:href="#linearGradient899"
       id="linearGradient901"
       x1="-1094.9363"
       y1="607.96387"
       x2="-1094.9363"
       y2="588.69812"
       gradientUnits="userSpaceOnUse"
       gradientTransform="matrix(0.26458333,0,0,0.26458333,331.58965,129.5288)" />
    <filter
       inkscape:collect="always"
       style="color-interpolation-filters:sRGB"
       id="filter918"
       x="-0.022615384"
       width="1.0452307"
       y="-0.0081666661"
       height="1.0163333">
      <feGaussianBlur
         inkscape:collect="always"
         stdDeviation="0.013008974"
         id="feGaussianBlur920" />
    </filter>
    <linearGradient
       inkscape:collect="always"
       xlink:href="#linearGradient926"
       id="linearGradient928"
       x1="-441.98978"
       y1="103.41358"
       x2="-376.81015"
       y2="103.56377"
       gradientUnits="userSpaceOnUse"
       gradientTransform="translate(447.55536,130.80315)" />
    <linearGradient
       inkscape:collect="always"
       xlink:href="#linearGradient936"
       id="linearGradient938"
       x1="-420.21317"
       y1="145.9155"
       x2="-395.88345"
       y2="145.7653"
       gradientUnits="userSpaceOnUse"
       gradientTransform="translate(447.55536,130.80315)" />
    <radialGradient
       inkscape:collect="always"
       xlink:href="#linearGradient954"
       id="radialGradient956"
       cx="-407.48114"
       cy="90.691551"
       fx="-407.48114"
       fy="90.691551"
       r="5.4228501"
       gradientTransform="matrix(1.665668,0.03726383,-0.05044742,2.2549668,275.82229,-98.6401)"
       gradientUnits="userSpaceOnUse" />
    <radialGradient
       inkscape:collect="always"
       xlink:href="#linearGradient964"
       id="radialGradient966"
       cx="-407.66699"
       cy="91.053711"
       fx="-407.66699"
       fy="91.053711"
       r="2.274415"
       gradientTransform="matrix(0.88327098,0.01167329,-0.0120379,0.91085973,-46.490473,12.875367)"
       gradientUnits="userSpaceOnUse" />
    <filter
       inkscape:collect="always"
       style="color-interpolation-filters:sRGB"
       id="filter996"
       x="-0.074256741"
       width="1.1485136"
       y="-0.06987638"
       height="1.1397527">
      <feGaussianBlur
         inkscape:collect="always"
         stdDeviation="0.14074221"
         id="feGaussianBlur998" />
    </filter>
    <radialGradient
       inkscape:collect="always"
       xlink:href="#linearGradient1006"
       id="radialGradient1008"
       cx="-408.26938"
       cy="127.29926"
       fx="-408.26938"
       fy="127.29926"
       r="0.69027209"
       gradientTransform="matrix(1.3807571,0,0,2.7692308,603.00681,-94.418632)"
       gradientUnits="userSpaceOnUse" />
  </defs>
  <sodipodi:namedview
     id="base"
     pagecolor="#ffffff"
     bordercolor="#666666"
     borderopacity="1.0"
     inkscape:pageopacity="0.0"
     inkscape:pageshadow="2"
     inkscape:zoom="0.59490234"
     inkscape:cx="429.12248"
     inkscape:cy="523.86887"
     inkscape:document-units="mm"
     inkscape:current-layer="layer1"
     showgrid="false"
     objecttolerance="1"
     gridtolerance="1"
     guidetolerance="1"
     units="px"
     inkscape:window-width="1920"
     inkscape:window-height="1016"
     inkscape:window-x="0"
     inkscape:window-y="27"
     inkscape:window-maximized="1" />
  <metadata
     id="metadata5">
    <rdf:RDF>
      <cc:Work
         rdf:about="">
        <dc:format>image/svg+xml</dc:format>
        <dc:type
           rdf:resource="http://purl.org/dc/dcmitype/StillImage" />
        <dc:title></dc:title>
      </cc:Work>
    </rdf:RDF>
  </metadata>
  <g
     inkscape:label="Layer 1"
     inkscape:groupmode="layer"
     id="layer1"
     transform="translate(0,-191.16667)">
    <g
       id="g1036">
      <path
         style="fill:#000000;fill-opacity:1;stroke:none;stroke-width:0.26458332px;stroke-linecap:butt;stroke-linejoin:miter;stroke-opacity:1"
         d="m 16.29459,285.3947 c 16.95555,1.08011 11.48578,-9.52938 14.86741,-18.37185 h 17.309887 c 2.26922,7.555 -2.02744,18.83445 14.33642,18.47805 l 4.24784,3.61065 0.10619,1.91152 c -18.74902,1.22545 -37.144497,1.03676 -55.327968,0 l 0.21241,-2.01771 z"
         id="path906"
         inkscape:connector-curvature="0"
         sodipodi:nodetypes="ccccccccc" />
      <path
         sodipodi:nodetypes="ccccccccc"
         inkscape:connector-curvature="0"
         id="path28"
         d="m 16.29459,285.3947 c 16.95555,1.08011 11.48578,-9.52938 14.86741,-18.37185 h 17.309887 c 2.26922,7.555 -2.02744,18.83445 14.33642,18.47805 l 4.24784,3.61065 0.10619,1.91152 c -18.74902,1.22545 -37.144497,1.03676 -55.327968,0 l 0.21241,-2.01771 z"
         style="fill:url(#linearGradient938);fill-opacity:1;stroke:none;stroke-width:0.26458332px;stroke-linecap:butt;stroke-linejoin:miter;stroke-opacity:1" />
      <path
         inkscape:connector-curvature="0"
         id="path32"
         d="m 37.26601,284.90743 c -4.88381,4.7e-4 -9.80059,0.0741 -14.75311,0.22789 -1.6397,0.31856 -3.67504,0.42143 -6.21821,0.25942 l -4.247811,3.61063 -0.21238,2.01745 c 18.183471,1.03676 36.578858,1.22545 55.327878,0 l -0.10645,-1.91151 -4.24781,-3.61064 c -1.54657,0.0337 -2.90782,-0.0367 -4.10826,-0.19792 -7.09282,-0.24523 -14.22919,-0.39602 -21.433847,-0.39532 z"
         style="fill:#ced1d8;fill-opacity:1;stroke:none;stroke-width:0.26458332px;stroke-linecap:butt;stroke-linejoin:miter;stroke-opacity:1" />
      <path
         inkscape:connector-curvature="0"
         style="opacity:0.56999966;fill:url(#linearGradient901);fill-opacity:1;stroke:none;stroke-width:0.26458332px;stroke-linecap:butt;stroke-linejoin:miter;stroke-opacity:1"
         d="m 37.26601,284.90743 c -4.88381,4.7e-4 -9.80059,0.0741 -14.75311,0.22789 -1.6397,0.31856 -3.67504,0.42143 -6.21821,0.25942 l -4.247811,3.61063 -0.21238,2.01745 c 18.183471,1.03676 36.578858,1.22545 55.327878,0 l -0.10645,-1.91151 -4.24781,-3.61064 c -1.54657,0.0337 -2.90782,-0.0367 -4.10826,-0.19792 -7.09282,-0.24523 -14.22919,-0.39602 -21.433847,-0.39532 z"
         id="path885" />
      <path
         inkscape:connector-curvature="0"
         id="path30"
         d="m 67.058507,289.15678 c -18.59229,1.16666 -37.053057,1.71931 -55.028688,0.008 l -0.19532,1.85777 c 18.183471,1.03676 36.578858,1.22545 55.327878,0 z"
         style="opacity:0.54299999;fill:#1a1a1a;stroke:none;stroke-width:0.26458332px;stroke-linecap:butt;stroke-linejoin:miter;stroke-opacity:1" />
      <path
         transform="translate(447.55536,130.80315)"
         d="m -407.54883,77.189453 a 17.893976,18.212563 0 0 0 -17.89453,18.212891 17.893976,18.212563 0 0 0 17.89453,18.212886 17.893976,18.212563 0 0 0 17.89453,-18.212886 17.893976,18.212563 0 0 0 -17.89453,-18.212891 z"
         id="ellipse878"
         style="opacity:1;fill:#ffffff;fill-opacity:1;stroke:none;stroke-width:0.1;stroke-opacity:1"
         inkscape:original="M -407.54883 77.189453 A 17.893976 18.212563 0 0 0 -425.44336 95.402344 A 17.893976 18.212563 0 0 0 -407.54883 113.61523 A 17.893976 18.212563 0 0 0 -389.6543 95.402344 A 17.893976 18.212563 0 0 0 -407.54883 77.189453 z "
         inkscape:radius="-0.00066427398"
         sodipodi:type="inkscape:offset" />
      <path
         transform="translate(447.55536,130.80315)"
         d="m -407.98047,67.009766 c -5.82568,0.02731 -11.71513,0.338079 -17.64844,0.851562 -2.34748,0.203158 -4.17712,2.060356 -4.40039,4.390625 -1.9387,20.234168 -4.31523,40.708577 0.0254,59.699217 0.49761,2.17705 2.16316,3.48391 4.05469,4.16016 10.67709,3.8172 22.62242,3.44554 35.42383,0.0312 2.02927,-0.54123 3.85995,-1.99888 4.17578,-4.30078 2.73354,-19.92332 1.64523,-39.785451 0.008,-59.574222 -0.19495,-2.356111 -2.06832,-4.150357 -4.37304,-4.404297 -5.67815,-0.625631 -11.43994,-0.880824 -17.26563,-0.853515 z"
         id="path874"
         style="opacity:1;fill:#1a1a1a;fill-opacity:1;stroke:none;stroke-width:0.10310616;stroke-opacity:1"
         inkscape:original="M -407.97461 68.283203 C -413.75887 68.310317 -419.61429 68.619804 -425.51953 69.130859 C -427.30929 69.28575 -428.59038 70.584785 -428.76172 72.373047 C -430.70194 92.623088 -433.03514 112.97134 -428.76172 131.66797 C -428.36143 133.41926 -427.21112 134.30734 -425.51953 134.91211 C -415.1508 138.61907 -403.48669 138.28153 -390.85352 134.91211 C -389.11775 134.44916 -387.85552 133.44775 -387.61133 131.66797 C -384.89951 111.90299 -385.97588 92.138032 -387.61133 72.373047 C -387.75947 70.582713 -389.06788 69.327605 -390.85352 69.130859 C -396.47612 68.511348 -402.19035 68.256089 -407.97461 68.283203 z "
         inkscape:radius="1.2743486"
         sodipodi:type="inkscape:offset" />
      <path
         sodipodi:nodetypes="sssssssss"
         inkscape:connector-curvature="0"
         id="rect21"
         d="m 22.03674,199.93406 c 11.81048,-1.02211 23.419667,-1.23903 34.664867,0 1.78564,0.19674 3.09455,1.45236 3.24269,3.24269 1.63545,19.76499 2.71182,39.52998 0,59.29496 -0.24419,1.77978 -1.50692,2.77974 -3.24269,3.24269 -12.63317,3.36942 -24.296137,3.70696 -34.664867,0 -1.69159,-0.60477 -2.8424,-1.4914 -3.24269,-3.24269 -4.27342,-18.69663 -1.94022,-39.04492 0,-59.29496 0.17134,-1.78826 1.45293,-3.0878 3.24269,-3.24269 z"
         style="opacity:1;fill:url(#linearGradient928);fill-opacity:1;stroke:none;stroke-width:0.10310616;stroke-opacity:1" />
      <path
         transform="translate(447.55536,130.80315)"
         d="m -408.26953,125.12109 c -0.18736,6.2e-4 -0.35125,0.10548 -0.4668,0.23829 -0.11554,0.1328 -0.20203,0.30022 -0.27344,0.49804 -0.1428,0.39565 -0.21666,0.91625 -0.21679,1.44141 -6e-5,0.52549 0.074,1.04535 0.21679,1.4414 0.0714,0.19803 0.15786,0.36707 0.27344,0.5 0.11558,0.13294 0.27932,0.23767 0.4668,0.23829 0.18747,-6.2e-4 0.35122,-0.10535 0.4668,-0.23829 0.11557,-0.13293 0.20203,-0.30197 0.27343,-0.5 0.14281,-0.39605 0.21686,-0.91591 0.2168,-1.4414 -1.4e-4,-0.52516 -0.074,-1.04576 -0.2168,-1.44141 -0.0714,-0.19782 -0.15789,-0.36524 -0.27343,-0.49804 -0.11555,-0.13281 -0.27945,-0.23767 -0.4668,-0.23829 z"
         id="ellipse1010"
         style="opacity:0.8;fill:#000000;fill-opacity:1;stroke:none;stroke-width:0.1;stroke-opacity:1"
         inkscape:original="M -408.26953 125.38867 A 0.69027209 1.9115227 0 0 0 -408.95898 127.29883 A 0.69027209 1.9115227 0 0 0 -408.26953 129.21094 A 0.69027209 1.9115227 0 0 0 -407.58008 127.29883 A 0.69027209 1.9115227 0 0 0 -408.26953 125.38867 z "
         inkscape:radius="0.26821756"
         sodipodi:type="inkscape:offset" />
      <ellipse
         style="opacity:0.8;fill:#000000;fill-opacity:1;stroke:none;stroke-width:0.1;stroke-opacity:1;filter:url(#filter918)"
         id="ellipse916"
         cx="39.285984"
         cy="258.10242"
         rx="0.69027209"
         ry="1.9115227" />
      <ellipse
         ry="1.9115227"
         rx="0.69027209"
         cy="258.10242"
         cx="39.285984"
         id="path24"
         style="opacity:0.8;fill:#008000;fill-opacity:1;stroke:none;stroke-width:0.1;stroke-opacity:1" />
      <ellipse
         ry="18.212563"
         rx="17.893976"
         cy="226.20569"
         cx="40.006351"
         id="path26"
         style="opacity:1;fill:#000000;fill-opacity:1;stroke:none;stroke-width:0.1;stroke-opacity:1" />
      <path
         transform="translate(447.55536,130.80315)"
         d="m -407.54883,78.128906 c -4.43461,-1.39e-4 -8.84395,1.856439 -11.98437,5.052735 -3.14043,3.196295 -4.97079,7.694009 -4.97071,12.220703 -8e-5,4.526692 1.83028,9.024406 4.97071,12.220706 3.14042,3.19629 7.54976,5.05287 11.98437,5.05273 4.43461,1.4e-4 8.84395,-1.85644 11.98438,-5.05273 3.14042,-3.1963 4.97078,-7.694014 4.9707,-12.220706 8e-5,-4.526694 -1.83028,-9.024408 -4.9707,-12.220703 -3.14043,-3.196296 -7.54977,-5.052874 -11.98438,-5.052735 z"
         id="ellipse942"
         style="opacity:1;fill:#000000;fill-opacity:1;stroke:none;stroke-width:0.1;stroke-opacity:1"
         inkscape:original="M -407.54883 77.189453 A 17.893976 18.212563 0 0 0 -425.44336 95.402344 A 17.893976 18.212563 0 0 0 -407.54883 113.61523 A 17.893976 18.212563 0 0 0 -389.6543 95.402344 A 17.893976 18.212563 0 0 0 -407.54883 77.189453 z "
         inkscape:radius="-0.93882942"
         sodipodi:type="inkscape:offset" />
      <path
         inkscape:connector-curvature="0"
         id="ellipse853"
         transform="matrix(0.26458333,0,0,0.26458333,447.55536,130.80315)"
         d="m -1540.3418,291.74219 a 67.630776,68.834882 0 0 0 -67.6309,68.83398 67.630776,68.834882 0 0 0 7.2168,30.9043 c 49.3454,-10.87663 90.113,-47.48765 123.8145,-54.72266 a 67.630776,68.834882 0 0 0 -63.4004,-45.01562 z"
         style="opacity:0.8;fill:url(#linearGradient864);fill-opacity:1;stroke:none;stroke-width:0.37795275;stroke-opacity:1;filter:url(#filter870)" />
      <path
         transform="translate(447.55536,130.80315)"
         d="m -407.54883,80.230469 c -3.84792,-1.21e-4 -7.74811,1.638882 -10.48437,4.423828 -2.73572,2.784386 -4.36921,6.787974 -4.36914,10.748047 -7e-5,3.96007 1.63341,7.963656 4.36914,10.748046 2.73626,2.78494 6.63645,4.42395 10.48437,4.42383 3.84792,1.2e-4 7.7481,-1.63888 10.48438,-4.42383 2.73571,-2.78439 4.36921,-6.787976 4.36914,-10.748046 7e-5,-3.960073 -1.63343,-7.96366 -4.36914,-10.748047 -2.73628,-2.784949 -6.63646,-4.423949 -10.48438,-4.423828 z"
         id="path946"
         style="opacity:1;fill:#1a1a1a;fill-opacity:1;stroke:none;stroke-width:0.1;stroke-opacity:1"
         inkscape:original="M -407.54883 78.128906 C -411.98344 78.128767 -416.39278 79.985345 -419.5332 83.181641 C -422.67363 86.377936 -424.50399 90.87565 -424.50391 95.402344 C -424.50399 99.929036 -422.67363 104.42675 -419.5332 107.62305 C -416.39278 110.81934 -411.98344 112.67592 -407.54883 112.67578 C -403.11422 112.67592 -398.70488 110.81934 -395.56445 107.62305 C -392.42403 104.42675 -390.59367 99.929036 -390.59375 95.402344 C -390.59367 90.87565 -392.42403 86.377936 -395.56445 83.181641 C -398.70488 79.985345 -403.11422 78.128767 -407.54883 78.128906 z "
         inkscape:radius="-2.1018887"
         sodipodi:type="inkscape:offset" />
      <ellipse
         style="opacity:1;fill:#1a1a1a;fill-opacity:1;stroke:#4d4d4d;stroke-width:0.5;stroke-opacity:1"
         id="ellipse839"
         cx="39.826298"
         cy="221.85706"
         rx="8.0142717"
         ry="8.1569595" />
      <path
         transform="translate(447.49328,130.80315)"
         d="m -407.66602,85.738281 c -2.68221,-4.59e-4 -5.17424,2.50693 -5.17382,5.316407 2.4e-4,2.809047 2.49202,5.314912 5.17382,5.314453 2.6814,-2.02e-4 5.17164,-2.505838 5.17188,-5.314453 4.2e-4,-2.809044 -2.49008,-5.316205 -5.17188,-5.316407 z"
         id="ellipse845"
         style="opacity:1;fill:url(#radialGradient956);fill-opacity:1;stroke:#000000;stroke-width:0.5;stroke-opacity:1"
         inkscape:original="M -407.66602 82.896484 A 8.0142717 8.1569595 0 0 0 -415.68164 91.054688 A 8.0142717 8.1569595 0 0 0 -407.66602 99.210938 A 8.0142717 8.1569595 0 0 0 -399.65234 91.054688 A 8.0142717 8.1569595 0 0 0 -407.66602 82.896484 z "
         inkscape:radius="-2.8420663"
         sodipodi:type="inkscape:offset" />
      <path
         transform="translate(447.49328,130.80315)"
         d="m -407.66602,88.636719 c -0.87597,-1.5e-4 -2.27555,1.322311 -2.27539,2.417969 1e-4,1.09554 1.39901,2.416165 2.27539,2.416015 0.87632,-6.6e-5 2.27335,-1.320113 2.27344,-2.416015 1.7e-4,-1.096013 -1.39754,-2.417903 -2.27344,-2.417969 z"
         id="path849"
         style="opacity:0.56099997;fill:#000080;fill-opacity:1;stroke:#1a1a1a;stroke-width:0.5;stroke-opacity:1;filter:url(#filter996)"
         inkscape:original="M -407.66602 85.738281 C -410.34823 85.737822 -412.84026 88.24521 -412.83984 91.054688 C -412.8396 93.863735 -410.34782 96.3696 -407.66602 96.369141 C -404.98462 96.368939 -402.49438 93.863302 -402.49414 91.054688 C -402.49372 88.245643 -404.98422 85.738483 -407.66602 85.738281 z "
         inkscape:radius="-2.8977678"
         sodipodi:type="inkscape:offset" />
      <ellipse
         ry="1.699073"
         rx="1.6693515"
         cy="234.77283"
         cx="39.826298"
         id="ellipse841"
         style="opacity:1;fill:#1a1a1a;fill-opacity:1;stroke:#4d4d4d;stroke-width:0.5;stroke-opacity:1" />
      <ellipse
         style="opacity:1;fill:#1a1a1a;fill-opacity:1;stroke:#808080;stroke-width:0.24695851;stroke-opacity:1"
         id="ellipse843"
         cx="39.826298"
         cy="238.5529"
         rx="0.49071944"
         ry="0.49945635" />
      <path
         sodipodi:type="inkscape:offset"
         inkscape:radius="-2.8977678"
         inkscape:original="M -407.66602 85.738281 C -410.34823 85.737822 -412.84026 88.24521 -412.83984 91.054688 C -412.8396 93.863735 -410.34782 96.3696 -407.66602 96.369141 C -404.98462 96.368939 -402.49438 93.863302 -402.49414 91.054688 C -402.49372 88.245643 -404.98422 85.738483 -407.66602 85.738281 z "
         style="opacity:1;fill:url(#radialGradient966);fill-opacity:1;stroke:none;stroke-width:0.5;stroke-opacity:1"
         id="path958"
         d="m -407.66602,88.636719 c -0.87597,-1.5e-4 -2.27555,1.322311 -2.27539,2.417969 1e-4,1.09554 1.39901,2.416165 2.27539,2.416015 0.87632,-6.6e-5 2.27335,-1.320113 2.27344,-2.416015 1.7e-4,-1.096013 -1.39754,-2.417903 -2.27344,-2.417969 z"
         transform="translate(447.49328,130.80315)" />
      <ellipse
         style="opacity:0.8;fill:url(#radialGradient1008);fill-opacity:1;stroke:none;stroke-width:0.1;stroke-opacity:1"
         id="ellipse1000"
         cx="39.285984"
         cy="258.10242"
         rx="0.69027209"
         ry="1.9115227" />
    </g>
  </g>
</svg>
